<svg width="15" height="15" viewBox="0 0 15 15" xmlns="http://www.w3.org/2000/svg">
  <path d="M2.48855 13.3103L2.78245 12.9058L2.48855 13.3103ZM1.68966 12.5114L2.09417 12.2176L1.68966 12.5114ZM13.3103 12.5114L12.9058 12.2176L13.3103 12.5114ZM12.5114 13.3103L12.2176 12.9058L12.5114 13.3103ZM12.5114 1.68966L12.2176 2.09417L12.5114 1.68966ZM13.3103 2.48855L12.9058 2.78245L13.3103 2.48855ZM2.48855 1.68966L2.78245 2.09417L2.48855 1.68966ZM1.68966 2.48855L2.09417 2.78245L1.68966 2.48855ZM11.4662 6.40753C11.6606 6.2114 11.6592 5.89482 11.4631 5.70043C11.267 5.50604 10.9504 5.50745 10.756 5.70358L11.4662 6.40753ZM9.84917 7.32881L9.49404 6.97684L9.84917 7.32881ZM5.15083 7.32881L4.79571 7.68078L5.15083 7.32881ZM4.24402 5.70358C4.04963 5.50745 3.73305 5.50604 3.53692 5.70043C3.34078 5.89482 3.33937 6.2114 3.53376 6.40753L4.24402 5.70358ZM7.7263 8.93008L7.78952 9.42607H7.78952L7.7263 8.93008ZM7.2737 8.93008L7.21048 9.42607H7.21048L7.2737 8.93008ZM7.5 13.5C6.13479 13.5 5.15105 13.4993 4.38854 13.4167C3.6354 13.3351 3.15762 13.1784 2.78245 12.9058L2.19466 13.7148C2.76872 14.1319 3.4426 14.3201 4.28083 14.4109C5.10971 14.5007 6.15707 14.5 7.5 14.5V13.5ZM0.5 7.5C0.5 8.84293 0.499314 9.89029 0.589117 10.7192C0.679933 11.5574 0.868075 12.2313 1.28515 12.8053L2.09417 12.2176C1.82159 11.8424 1.6649 11.3646 1.5833 10.6115C1.50069 9.84895 1.5 8.86521 1.5 7.5H0.5ZM2.78245 12.9058C2.51833 12.7139 2.28606 12.4817 2.09417 12.2176L1.28515 12.8053C1.53872 13.1544 1.84565 13.4613 2.19466 13.7148L2.78245 12.9058ZM13.5 7.5C13.5 8.86521 13.4993 9.84895 13.4167 10.6115C13.3351 11.3646 13.1784 11.8424 12.9058 12.2176L13.7148 12.8053C14.1319 12.2313 14.3201 11.5574 14.4109 10.7192C14.5007 9.89029 14.5 8.84293 14.5 7.5H13.5ZM7.5 14.5C8.84293 14.5 9.89029 14.5007 10.7192 14.4109C11.5574 14.3201 12.2313 14.1319 12.8053 13.7148L12.2176 12.9058C11.8424 13.1784 11.3646 13.3351 10.6115 13.4167C9.84895 13.4993 8.86521 13.5 7.5 13.5V14.5ZM12.9058 12.2176C12.7139 12.4817 12.4817 12.7139 12.2176 12.9058L12.8053 13.7148C13.1544 13.4613 13.4613 13.1544 13.7148 12.8053L12.9058 12.2176ZM7.5 1.5C8.86521 1.5 9.84895 1.50069 10.6115 1.5833C11.3646 1.6649 11.8424 1.82159 12.2176 2.09417L12.8053 1.28515C12.2313 0.868075 11.5574 0.679933 10.7192 0.589117C9.89029 0.499314 8.84293 0.5 7.5 0.5V1.5ZM14.5 7.5C14.5 6.15707 14.5007 5.10971 14.4109 4.28083C14.3201 3.4426 14.1319 2.76872 13.7148 2.19466L12.9058 2.78245C13.1784 3.15762 13.3351 3.6354 13.4167 4.38854C13.4993 5.15105 13.5 6.13479 13.5 7.5H14.5ZM12.2176 2.09417C12.4817 2.28606 12.7139 2.51833 12.9058 2.78245L13.7148 2.19466C13.4613 1.84565 13.1544 1.53872 12.8053 1.28515L12.2176 2.09417ZM7.5 0.5C6.15707 0.5 5.1097 0.499314 4.28083 0.589117C3.4426 0.679933 2.76872 0.868075 2.19466 1.28515L2.78245 2.09417C3.15762 1.82159 3.6354 1.6649 4.38854 1.5833C5.15105 1.50069 6.13479 1.5 7.5 1.5V0.5ZM1.5 7.5C1.5 6.13479 1.50069 5.15105 1.5833 4.38854C1.6649 3.6354 1.82159 3.15762 2.09417 2.78245L1.28515 2.19466C0.868075 2.76872 0.679933 3.4426 0.589117 4.28083C0.499314 5.1097 0.5 6.15707 0.5 7.5H1.5ZM2.19466 1.28515C1.84565 1.53872 1.53872 1.84565 1.28515 2.19466L2.09417 2.78245C2.28606 2.51833 2.51833 2.28606 2.78245 2.09417L2.19466 1.28515ZM10.756 5.70358L9.49404 6.97684L10.2043 7.68078L11.4662 6.40753L10.756 5.70358ZM5.50596 6.97684L4.24402 5.70358L3.53376 6.40753L4.79571 7.68078L5.50596 6.97684ZM9.49404 6.97684C8.98257 7.49289 8.62818 7.84938 8.32725 8.09106C8.0342 8.3264 7.84072 8.41145 7.66308 8.43409L7.78952 9.42607C8.22518 9.37054 8.58994 9.16265 8.95341 8.87075C9.30899 8.58519 9.70938 8.18013 10.2043 7.68078L9.49404 6.97684ZM4.79571 7.68078C5.29062 8.18013 5.69101 8.58519 6.04659 8.87075C6.41006 9.16265 6.77482 9.37054 7.21048 9.42607L7.33692 8.43409C7.15928 8.41145 6.9658 8.3264 6.67275 8.09106C6.37182 7.84938 6.01743 7.49289 5.50596 6.97684L4.79571 7.68078ZM7.66308 8.43409C7.55479 8.4479 7.44521 8.4479 7.33692 8.43409L7.21048 9.42607C7.40273 9.45057 7.59727 9.45057 7.78952 9.42607L7.66308 8.43409Z" stroke="#72BF44" />
</svg>

