<svg width="30" height="30" viewBox="0 0 40 40" fill="none" xmlns="http://www.w3.org/2000/svg">
<path fill-rule="evenodd" clip-rule="evenodd" d="M0 20.0109C0 8.97027 8.97353 0 20.0136 0C31.0286 0 40 8.97027 40 20.0109C40 31.0286 31.0286 40 20.0136 40C8.97353 40 0 31.0286 0 20.0109ZM0.999892 20.0109C0.999892 30.4774 9.52908 38.9996 20.0136 38.9996C30.4769 38.9996 39.0001 30.4753 39.0001 20.0109C39.0001 9.52691 30.4801 1.00043 20.0136 1.00043C9.52583 1.00043 0.999892 9.52257 0.999892 20.0109ZM25.6885 7.43707C22.5233 6.02539 16.6254 5.88542 11.7942 8.03711C12.1804 7.76042 12.5836 7.51085 13.0018 7.28733C13.2568 7.15061 13.5178 7.02365 13.7831 6.90755C15.3044 6.199 17.7577 5.51215 20.8154 5.51215C20.9597 5.51215 21.1041 5.51324 21.2489 5.51649C23.8634 5.56315 26.9629 6.46593 28.8574 8.33984C29.1797 8.73264 29.3663 9.12435 29.4352 9.42708C30.9386 10.191 31.8164 10.9071 32.3009 11.7405C32.5109 12.1788 32.5798 12.64 32.4854 13.1727C32.9785 13.4494 33.406 13.8292 33.7386 14.2871C33.9431 14.6332 34.1054 15.0228 34.1531 15.3754C34.2209 15.8344 34.2665 16.3661 33.7809 16.9922C34.2898 17.2472 34.7043 17.9612 34.7542 18.265C35.0087 19.3945 34.2665 20.5056 33.3198 21.3639C32.6112 21.9824 31.3585 22.6769 30.0277 23.2313C29.2714 23.546 28.4896 23.8162 27.7686 24.0007C24.9902 24.7038 22.4278 25.1183 20.185 25.4818C19.2584 25.6326 18.386 25.7737 17.5754 25.9223C18.3143 26.0992 19.2079 26.3108 20.3852 26.4529C21.1957 26.5517 22.1408 26.6168 23.2633 26.6168C29.1564 26.6168 34.3598 23.8379 34.3598 23.8379C34.3598 23.8379 34.2453 24.1873 34.1276 24.5117C30.383 26.7773 24.4423 27.7246 21.8967 27.6085C19.33 27.4913 17.1577 27.0996 15.0298 26.4507C14.3799 26.6341 13.7397 26.85 13.112 27.0996C16.3509 28.5796 18.7999 28.9052 21.5522 29.1113C24.3707 29.3218 29.0441 28.648 32.9709 27.2179C32.883 27.3069 32.8158 27.4165 32.7501 27.5239C32.678 27.6411 32.6069 27.7572 32.5109 27.8418C30.4986 28.9052 26.2467 29.9696 24.0956 30.0618C21.9667 30.1552 19.3777 30.0618 17.111 29.6441C15.1687 29.2535 13.571 28.648 11.9076 27.9112C11.6097 28.1391 11.4708 28.4201 11.3987 28.7446C17.8998 32.1441 23.954 32.2114 30.8708 30.0618L30.2441 30.6641C22.6367 33.7641 16.6943 32.5597 12.0909 30.3385C11.932 30.2691 11.7464 30.1986 11.6097 30.1074C12.0497 30.8485 15.561 33.4158 19.4922 33.7402C20.9136 33.8618 22.5 33.7912 23.9703 33.584C25.3006 33.3963 26.5365 33.0957 27.4696 32.7235L26.314 33.3236C25.3651 33.7869 22.8456 34.8535 19.3289 34.6202C14.6365 34.2947 11.9998 32.2125 10.8198 31.1274C10.2653 30.6152 10.013 30.0391 9.84972 29.3218C8.78526 28.7663 8.11523 28.1858 7.56293 27.3079C7.2385 26.8229 7.30523 26.2457 7.37413 25.7563L7.51845 25.3451C7.00629 24.9707 6.47515 24.5779 6.26736 24.1873C5.80187 23.354 6.08398 22.6356 6.40625 22.0801C6.30371 21.9618 6.20443 21.8435 6.11437 21.7253C5.9592 21.5202 5.83116 21.3151 5.76118 21.11C5.62066 20.74 5.59896 20.3657 5.64073 19.9512C5.73513 19.2589 6.10514 18.6133 6.59071 18.0556C7.60634 16.875 9.22852 15.9505 11.9765 15.0488C14.0717 14.349 15.1969 14.107 16.5413 13.8184C16.9347 13.7337 17.3465 13.6458 17.8065 13.5406C20.1877 12.9894 23.0322 12.806 25.4118 11.9727C18.7755 10.8171 11.8864 11.8793 6.26736 15.7389L6.63628 14.6528C11.6764 11.3694 17.2499 9.42708 26.6829 11.0699C27.1918 10.7682 27.4919 10.4666 27.6329 9.86654C25.2729 9.0115 22.7078 8.71094 19.4021 8.75543C16.441 8.84983 11.0975 9.95551 8.23514 11.6504L9.1097 10.561C11.0975 9.37717 16.2999 7.82986 20.211 7.76042C22.9601 7.69206 24.3707 7.85265 27.6552 8.73264C27.3519 8.18034 26.6829 7.90039 25.6885 7.43707ZM30.7286 12.2504C30.6386 11.6026 29.8985 10.9776 29.2497 10.561C29.1895 10.7715 29.024 11.0102 28.8515 11.2218C28.7581 11.3368 28.6627 11.4431 28.5807 11.5332C29.2974 11.7198 30.0374 11.9933 30.7286 12.2504ZM27.564 12.4566C27.0985 12.8277 26.5696 13.15 25.7807 13.4538C27.0785 13.6806 28.0496 14.0517 29.1564 14.3544C29.1678 14.3598 29.1808 14.362 29.1933 14.3609C29.4341 14.3609 30.2262 13.6285 30.363 13.4277C29.9344 13.24 29.4531 13.0512 28.9372 12.8743C28.5004 12.7246 28.0393 12.5825 27.564 12.4566ZM32.5109 15.8572C32.8098 15.2789 32.6253 14.9089 32.003 14.3761C31.7475 14.6799 31.4697 14.9316 31.1697 15.1628C31.3878 15.2669 31.5972 15.357 31.7996 15.4525C32.0464 15.5686 32.283 15.6923 32.5109 15.8572ZM22.1077 14.6332C19.0554 15.0033 15.6776 15.6478 12.7886 16.505L12.6345 16.5517C11.2006 16.9878 5.77854 18.6328 7.42513 20.9006L7.44466 20.8789C7.602 20.701 8.74512 19.4021 12.3475 18.355C14.8817 17.6107 17.4799 17.1376 20.1188 16.6569C22.4892 16.225 24.8926 15.7867 27.3107 15.1411C25.8713 14.758 24.8904 14.5291 23.6632 14.528C23.1939 14.528 22.6888 14.5616 22.1077 14.6332ZM25.4134 17.4316C23.7722 17.8472 19.7933 18.4256 15.5176 19.35C14.1753 19.6506 10.4975 20.5056 8.69412 22.0334C8.98329 22.2721 9.21333 22.4045 9.45964 22.5336C9.64573 22.6313 9.84158 22.7279 10.0798 22.8668C10.8198 22.3796 11.8387 21.9173 13.3442 21.5224C15.7189 20.8919 17.5646 20.5881 19.6555 20.2441L20.2799 20.1411C22.6156 19.7873 27.0307 18.8628 29.4575 17.9839C30.0157 17.7951 30.5387 17.5608 30.9842 17.2884C31.1865 17.1647 31.3726 17.0334 31.5386 16.8956C31.3764 16.7133 29.8041 15.9505 29.7575 16.0211C28.7896 16.4822 27.4018 16.9434 25.4134 17.4316ZM27.0551 20.5773C22.1077 21.9173 18.5211 22.0996 14.451 23.1C13.9822 23.2183 13.5064 23.355 13.0415 23.5113C12.7029 23.6241 12.3698 23.7478 12.0497 23.8835C12.8098 24.2773 13.6431 24.6257 14.4743 24.9501C16.1388 24.464 16.9287 24.2556 19.3289 23.8628L20.6619 23.623C21.9331 23.3908 23.7082 23.0621 25.1096 22.7778C28.7896 21.9878 34.1764 20.2756 32.7431 18.0556C32.6714 18.1163 32.5998 18.1717 32.5282 18.227C32.4376 18.2986 32.3475 18.3702 32.2575 18.4494C31.1697 19.2773 29.4352 19.9512 27.0551 20.5773ZM8.27854 24.2773C8.43859 24.1168 8.64855 23.9768 8.81076 23.8379C8.43859 23.6458 8.18359 23.4831 7.89117 23.2964L7.72298 23.189C7.53744 23.61 7.9107 24.0668 8.27854 24.2773ZM12.5776 25.6196C11.9076 25.319 11.1919 25.0206 10.4975 24.6962C10.1742 24.9045 9.87522 25.1107 9.64301 25.319C10.1975 25.6434 10.7308 25.9418 11.2864 26.2467C11.6949 25.995 12.1273 25.7845 12.5776 25.6196ZM9.87522 27.7724C9.94195 27.5391 10.0597 27.3557 10.2219 27.1246C10.0391 27.0269 9.85677 26.9303 9.67448 26.8294C9.46289 26.7112 9.25239 26.5885 9.04188 26.4507C9.01639 26.8924 9.29633 27.2852 9.87522 27.7724Z" fill="#476BF0"/>
</svg>
