<svg width="30" height="30" viewBox="0 0 40 40" fill="none" xmlns="http://www.w3.org/2000/svg">
<path d="M4.00098 8.70703L8.84497 17.3654V22.6467L4.00664 31.288L4.00098 8.70703Z" fill="#5B57A2"/>
<path d="M22.5996 14.2145L27.1386 11.4325L36.4279 11.4238L22.5996 19.8952V14.2145Z" fill="#D90751"/>
<path d="M22.5738 8.65566L22.5995 20.119L17.7441 17.1356V0L22.5741 8.65566H22.5738Z" fill="#FAB718"/>
<path d="M36.4278 11.4237L27.1381 11.4323L22.5738 8.65566L17.7441 0L36.4275 11.4237H36.4278Z" fill="#ED6F26"/>
<path d="M22.5995 31.336V25.7743L17.7441 22.8477L17.7468 40.0003L22.5995 31.336Z" fill="#63B22F"/>
<path d="M27.1276 28.5793L8.84464 17.3654L4.00098 8.70703L36.4086 28.568L27.1273 28.5793H27.1276Z" fill="#1487C9"/>
<path d="M17.748 39.9997L22.6 31.3354L27.1277 28.5787L36.4087 28.5674L17.748 39.9997Z" fill="#017F36"/>
<path d="M4.00684 31.2878L17.7845 22.8479L13.1525 20.0059L8.84516 22.6465L4.00684 31.2878Z" fill="#984995"/>
</svg>
