<svg width="30" height="31" viewBox="0 0 40 41" fill="none" xmlns="http://www.w3.org/2000/svg">
<path d="M39.4716 19.2062L40 17.5469L38.2815 17.6012C37.4765 17.5716 36.7012 17.3 36.0494 16.821H36.2815C37.3284 16.816 38.2864 16.2185 38.7506 15.2802L39.5062 13.6654C38.9136 13.6704 38.321 13.6358 37.7333 13.5617C37.1704 13.4284 36.6667 13.1222 36.2864 12.6877C35.7728 12.1395 35.0617 11.8284 34.3111 11.8235C34.0198 11.8235 33.7284 11.8728 33.4469 11.9617C33.4864 11.8284 33.521 11.6951 33.5457 11.5568C33.6642 10.5938 33.3926 9.62099 32.7951 8.85556L31.4914 7.25062L30.6914 9.12716C30.563 9.39383 30.3704 9.62593 30.1235 9.79383C29.9852 9.12222 29.6593 8.50988 29.1753 8.02593C28.3654 7.1963 27.2543 6.7321 26.0938 6.74198C25.8914 6.74198 25.6889 6.75679 25.4914 6.78642L23.9309 7.09259C24.0642 6.56914 24.2765 6.07037 24.563 5.61111L25.4222 4.27284L23.2593 4.47531L22.5679 2.99383L21.2346 3.71975L20 2.5L18.7654 3.71975L17.4321 3.0284L16.7407 4.47531L14.5778 4.22839L15.437 5.5716C15.7235 6.03086 15.9358 6.52963 16.0691 7.05309L14.5877 6.76173H14.5383C14.3309 6.7321 14.1235 6.71728 13.916 6.71728C12.7556 6.70741 11.6444 7.17161 10.8346 8.00123C10.3457 8.49012 10.0099 9.11235 9.87654 9.79383C9.63951 9.63086 9.44691 9.40864 9.31852 9.14691L8.51358 7.25556L7.2 8.86543C6.61235 9.63086 6.35062 10.5988 6.4642 11.5568C6.48889 11.6951 6.52346 11.8284 6.56296 11.9617C6.28148 11.8728 5.99012 11.8235 5.69877 11.8235C4.94815 11.8284 4.23704 12.1395 3.72346 12.6877C3.34815 13.1173 2.84938 13.4235 2.29136 13.5617C1.69877 13.6506 1.0963 13.6852 0.493827 13.6654L1.22963 15.3049C1.69383 16.2432 2.65185 16.8407 3.69877 16.8457H3.93086C3.28889 17.3148 2.52346 17.5864 1.7284 17.621L0 17.5469L0.528395 19.2062C0.923457 20.5049 2.04444 21.458 3.39259 21.6309C3.25432 22.5049 2.70123 23.2605 1.91111 23.6556L0.587654 24.1938L1.29877 25.4333C1.88642 26.3469 2.89877 26.8901 3.98025 26.8802C4.26173 26.8802 4.54321 26.8506 4.81975 26.7914C4.88889 27.0926 4.97778 27.3938 5.07654 27.6852C5.32346 28.337 5.33827 29.0481 5.12593 29.7099L4.48395 31.058L5.92099 31.4383C6.24198 31.5222 6.57778 31.5617 6.90864 31.5617C7.14568 31.5617 7.37778 31.537 7.60988 31.4827C7.77778 31.4432 7.94568 31.3938 8.1037 31.3296C8.28642 31.6605 8.51852 31.9667 8.78025 32.2383C9.69877 33.1815 11.0025 33.6605 12.6568 33.6605H13.837L11.4025 34.6728L13.2494 35.5864C13.9951 35.9519 14.7556 36.2827 15.5309 36.5741L15.3086 37.216L15.9457 37.5074C17.0025 37.9222 18.1235 38.1543 19.2593 38.1938H20.7753C21.9062 38.1543 23.0222 37.9173 24.0741 37.5025L24.6914 37.216L24.4741 36.5741C25.2593 36.2728 26.0296 35.9321 26.7802 35.5518L28.5926 34.6728L26.163 33.6852H27.3481C29.0025 33.6852 30.3111 33.1914 31.2247 32.263C31.4914 31.9914 31.7185 31.6852 31.9012 31.3543C32.0593 31.4185 32.2272 31.4679 32.3951 31.5074C32.6272 31.5617 32.8593 31.5864 33.0963 31.5864C33.4272 31.5864 33.763 31.542 34.084 31.463L35.5259 31.0827L34.8988 29.7593C34.6617 29.0877 34.6716 28.3519 34.9235 27.6852C35.0272 27.3839 35.1111 27.0778 35.1802 26.7716C35.4568 26.8309 35.7432 26.8605 36.0247 26.8605C37.116 26.8704 38.1333 26.3074 38.7111 25.379L39.4123 24.1543L38.1086 23.621C37.3185 23.2259 36.7654 22.4704 36.6272 21.5963C37.9753 21.4185 39.0963 20.4704 39.4914 19.1667L39.4716 19.2062Z" fill="white"/>
<path d="M25.9359 24.451H14.084V28.8954C14.084 30.7226 15.4025 31.8584 17.3531 31.8584C18.9828 31.8584 19.4124 31.9226 20.0149 32.525C20.3951 32.1152 20.9334 31.8831 21.4964 31.8929V31.8238L21.8717 30.6682L21.2346 29.9719C20.9778 30.051 20.7112 30.0806 20.4445 30.0658C20.0445 30.0608 19.6494 30.0213 19.2593 29.9423H19.1359C19.0815 29.9423 19.0815 29.9423 19.0667 29.9719L18.9927 30.0954L18.8593 30.3176L18.6025 30.2584L17.4618 29.9917L17.3038 30.2485V30.2781L17.442 30.4312L17.3828 30.6287C17.2791 30.8707 17.1309 31.088 16.9433 31.2757L16.6569 31.5818L16.3951 31.2559L16.2025 31.0139C15.9951 30.7423 15.9457 30.3868 16.0643 30.0658L15.7433 30.1991L15.6001 29.8831L15.5211 29.6608C15.3186 29.1917 15.4717 28.6485 15.8815 28.3522L16.8001 27.8584L17.6741 28.0312C17.6741 27.9473 17.7285 27.646 17.7532 27.5719H17.7038L17.2099 27.7596L16.7161 27.4238C16.6173 27.325 16.6124 27.1621 16.7161 27.0584L17.1852 26.3473L15.9951 24.8658L17.7778 25.567L17.9013 25.4189L18.1482 25.1226L18.4297 25.3892C18.5038 25.4633 18.5531 25.5522 18.5778 25.6559C19.0717 25.8534 19.9852 26.4312 20.0593 27.3695L19.7778 27.4831C19.8124 27.5324 19.8569 27.5719 19.9112 27.5966L21.2149 27.725L21.3334 27.6905C21.5556 27.6065 21.7927 27.5621 22.0297 27.5571C22.2667 27.5571 22.4988 27.6115 22.7112 27.7152C22.805 27.6806 22.9087 27.6608 23.0075 27.6559H23.0717C23.768 27.6559 24.1186 28.1794 24.3951 28.5942L24.5383 28.8016C24.7803 29.1473 25.1013 29.651 25.1161 29.6707L25.2593 29.8929L25.0815 30.1003C24.9186 30.3176 24.6618 30.4411 24.3902 30.4411C24.3112 30.446 24.2322 30.446 24.1531 30.4411C24.084 30.4263 24.0149 30.4065 23.9457 30.3769C23.9457 30.446 23.9457 30.53 23.9062 30.5991L23.7038 31.7645C25.047 31.4929 25.9951 30.288 25.9408 28.9152L25.9359 24.451ZM14.0692 24.0905H23.2988C22.9235 23.6955 22.7951 23.1276 22.963 22.609C22.8396 22.5498 22.721 22.4708 22.6173 22.3819C22.2568 22.6485 21.1359 23.4485 20.8692 23.651L20.8099 23.6905L17.1852 23.0485H17.1112C16.9926 23.0535 16.8741 23.0535 16.7556 23.0485C16.721 23.2115 16.5778 23.3251 16.4149 23.3251H16.3556C16.163 23.2905 16.0297 23.1078 16.0593 22.9152V22.8362C15.5902 22.5004 15.368 21.9177 15.4914 21.3547V21.2905L15.5457 21.251C15.5457 21.251 15.6149 21.2016 15.7087 21.1473L15.447 21.1078C15.3482 21.088 15.284 20.9992 15.2988 20.9004C15.3136 20.8016 15.4025 20.7374 15.5013 20.7522H15.5062L16.1334 20.851L16.1926 18.6436L17.126 17.6559L17.7087 18.8806L17.0964 21.0041L17.6494 21.093C17.7482 21.1127 17.8124 21.2016 17.7976 21.3004C17.7828 21.3893 17.7087 21.4485 17.6198 21.4485H17.5902L17.1408 21.3745V21.409C17.1902 21.4979 17.2643 21.5671 17.3581 21.6115L20.1186 21.6559L20.8247 20.9597C20.2865 20.772 19.9013 20.2979 19.8371 19.73C19.4914 19.5967 19.2099 19.3399 19.0519 19.009C18.9186 18.6979 18.8939 18.3473 18.9877 18.0214C18.5531 17.8485 18.1581 17.5868 17.8371 17.251H13.7383C13.9359 17.735 14.0494 18.2485 14.0692 18.7671V24.0905Z" fill="#FCE527"/>
<path d="M17.8572 26.3916C17.7979 26.3916 17.7436 26.436 17.7386 26.4953V26.5002C17.7337 26.5644 17.7831 26.6237 17.8473 26.6286H17.8522C17.9213 26.6286 17.9707 26.5743 17.9707 26.5101C17.9707 26.4409 17.9213 26.3916 17.8572 26.3916Z" fill="#222220"/>
<path d="M17.8516 26.3863C17.8565 26.3863 17.8565 26.3912 17.8565 26.3912C17.8615 26.3912 17.8615 26.3863 17.8664 26.3863H17.8516ZM25.9206 34.485L25.2392 34.2233L25.4268 33.5171L25.6342 32.7467C24.7009 33.2258 23.7231 33.6109 22.7157 33.8974C22.2219 34.0356 21.8663 34.0998 21.8663 34.0998V34.5986C21.2589 34.6974 20.6466 34.7517 20.0293 34.7566H19.975C19.3577 34.7517 18.7453 34.6974 18.1379 34.5986V34.1048C18.1379 34.1048 17.7774 34.0356 17.2836 33.8974C16.2762 33.6109 15.2984 33.2258 14.3651 32.7467L14.5676 33.5171L14.7601 34.2233L14.0737 34.485L13.333 34.7665C14.3503 35.2949 15.412 35.7344 16.5083 36.0801L16.2466 36.7912C17.4367 37.2455 18.7108 37.4677 19.9848 37.4381H20.0145C21.2885 37.4677 22.5626 37.2455 23.7527 36.7912L23.4959 36.0801C24.5873 35.7344 25.649 35.2949 26.6663 34.7665L25.9206 34.485ZM14.1577 34.8109L15.2638 34.4406L14.933 33.3542C15.6589 33.7146 16.4095 34.0159 17.1848 34.2529L16.6416 35.7344C15.7873 35.5072 14.9527 35.1961 14.1577 34.8109ZM20.0293 37.0875L20.0046 37.0677C18.9182 37.0628 17.8367 36.9146 16.7898 36.6282L17.4564 34.8208C18.2861 35.0282 19.1404 35.1418 19.9996 35.1467H20.054C20.9132 35.1369 21.7675 35.0282 22.5972 34.8208L23.2638 36.6282C22.212 36.9244 21.1206 37.0776 20.0293 37.0875ZM23.3972 35.764V35.7492L22.854 34.2677C23.6293 34.0307 24.3799 33.7295 25.1058 33.369L24.775 34.4554L25.8959 34.8307C25.0959 35.2208 24.2564 35.5368 23.3972 35.764ZM19.9997 6.29732C21.1157 6.26769 22.212 6.60349 23.1206 7.25041C23.2639 6.51954 23.5355 5.81831 23.9256 5.18127L22.8046 5.30967L22.2219 4.06028L21.091 4.643L19.9997 3.56152L18.9083 4.643L17.7774 4.06028L17.1947 5.30967L16.0737 5.18127C16.4639 5.81831 16.7355 6.51954 16.8787 7.25041C17.7873 6.60349 18.8836 6.26769 19.9997 6.29732ZM17.1453 5.74423L17.4565 5.7788L17.5898 5.49732L17.9799 4.65781L18.7058 5.03312L18.9873 5.17633L19.2145 4.96892L19.9997 4.17386L20.7848 4.96892L21.012 5.19115L21.2935 5.04794L22.0145 4.67263L22.4095 5.51213L22.5429 5.79362L22.854 5.75905L23.1503 5.72448C23.0318 5.99609 22.9281 6.27757 22.8441 6.56399C21.0614 5.65041 18.9429 5.65041 17.1602 6.56399C17.0762 6.27757 16.9725 5.99609 16.854 5.72448L17.1453 5.74423ZM34.6467 16.4899L34.5133 16.327C33.5948 15.1566 32.7207 14.0455 31.1603 13.5368C31.2245 13.4825 31.2887 13.4331 31.3578 13.3887C32.0985 12.9689 32.622 12.248 32.7899 11.4134C32.8738 10.6578 32.6615 9.90223 32.1973 9.29976L31.7035 8.68248L31.3924 9.41828C31.3924 9.46272 30.8442 10.643 29.738 10.643H29.4121C29.4714 9.86766 29.1899 9.10223 28.6417 8.54914C27.9751 7.86766 27.0566 7.48741 26.1035 7.49235C25.9257 7.49235 25.7479 7.50717 25.5751 7.53186L24.8195 7.68001L25.2887 8.29729C25.6541 8.79112 25.9849 9.64544 25.5948 10.1047C25.4072 10.2677 25.1948 10.3961 24.9627 10.4849C24.4689 10.7171 23.7578 11.048 23.7578 11.8776C23.7578 12.4159 24.1775 12.9788 24.9331 13.4578C27.1603 14.8702 28.538 16.327 29.1356 17.9665C30.059 20.4652 28.8541 21.8875 27.6837 22.6381L27.1603 22.9739L27.6195 23.3936C28.0294 23.7443 28.5331 23.9615 29.0714 24.0159H29.5207C29.98 24.0159 30.4343 23.9517 30.8738 23.8183C30.7652 24.0109 30.6319 24.1936 30.4887 24.3615C29.822 25.1368 28.8343 25.5615 27.8121 25.5072H27.3726L27.338 25.9467C27.3331 26.564 27.6047 27.1467 28.0738 27.5467C28.1973 27.6554 28.3356 27.7443 28.4837 27.8134C27.7528 28.5245 27.338 29.4973 27.3232 30.5196C27.3232 31.0776 27.1948 31.6307 26.9528 32.1344L26.459 32.8751H27.338C28.7899 32.8751 29.901 32.4751 30.6714 31.6801C31.0714 31.2603 31.3677 30.7517 31.5405 30.1986C31.8269 30.4405 32.1627 30.6085 32.5282 30.6924C32.701 30.7319 32.8788 30.7517 33.0566 30.7517C33.3232 30.7517 33.5899 30.7171 33.8467 30.6578L34.4096 30.5097L34.1627 29.9862C33.8516 29.1517 33.8516 28.2282 34.1627 27.3936C34.3454 26.8504 34.4738 26.2875 34.543 25.7146C34.9874 25.9418 35.4812 26.0554 35.98 26.0504C36.7998 26.0603 37.5652 25.6554 38.0096 24.9689L38.2812 24.4751L37.7874 24.2677C36.1331 23.5813 35.7677 21.7344 35.6936 20.7368C35.8566 20.7714 36.0195 20.7912 36.1874 20.7961L36.3257 20.8899C38.1232 20.8899 38.7257 19.0578 38.7504 18.9788L38.9528 18.3319H38.2763C36.8541 18.2825 35.5257 17.6109 34.6467 16.4899ZM36.3306 20.3912H36.2615C35.901 20.3961 35.5454 20.2973 35.2393 20.1097C35.2393 20.1097 34.9775 23.6801 37.6393 24.7862V24.801C37.2887 25.3344 36.6862 25.6504 36.0491 25.6405C35.3282 25.685 34.6319 25.3788 34.1775 24.8208C34.1924 25.6603 34.0541 26.4998 33.7726 27.2899C33.4121 28.243 33.4121 29.2998 33.7726 30.2529C33.5504 30.3072 33.3282 30.3368 33.101 30.3368C32.9627 30.3368 32.8195 30.322 32.6862 30.2875C32.0294 30.1294 31.5059 29.6455 31.2936 29.0084C31.2936 29.0084 31.3973 32.4356 27.4022 32.4356H27.3726C27.6738 31.8628 27.8319 31.2257 27.8269 30.5788C27.9998 28.0455 29.7183 27.685 29.7183 27.685C29.2442 27.6257 28.7948 27.4578 28.3998 27.1912C28.0393 26.8899 27.8319 26.4455 27.822 25.9764C28.9775 26.0257 30.0936 25.5467 30.8491 24.6677C31.3035 24.1492 31.6047 23.5171 31.7331 22.8405C31.0961 23.3196 30.3109 23.5615 29.5158 23.527H29.1109C28.6812 23.4825 28.2714 23.3146 27.9405 23.0331C29.4615 22.0455 30.5282 20.3566 29.5849 17.7936C28.8245 15.7393 27.0022 14.2035 25.1701 13.048C24.5627 12.6726 24.1973 12.248 24.1973 11.8825C24.1973 11.0233 25.417 10.9986 25.9208 10.401C26.4985 9.72939 26.138 8.64297 25.6343 7.99112C25.7775 7.96643 25.9257 7.95655 26.0689 7.95655C26.8936 7.94667 27.6887 8.27754 28.2615 8.87013C28.8442 9.42322 29.0664 10.2578 28.8442 11.0282L29.1109 11.0825C29.2738 11.1122 29.4368 11.127 29.6047 11.1319H29.7133C31.1603 11.1319 31.8121 9.61581 31.8121 9.61581C31.8121 9.61581 33.3528 11.5122 31.0862 12.9936C30.6961 13.2455 30.5232 13.4875 30.5924 13.7344L30.6269 13.8973L30.7899 13.927C32.4343 14.3714 33.259 15.5072 34.2812 16.7961C35.2491 18.0257 36.7109 18.7665 38.2763 18.8208H38.3059C38.3059 18.8208 37.8121 20.3912 36.3306 20.3912Z" fill="#222220"/>
<path d="M33.1603 13.7591C33.7134 14.0751 34.1924 14.5048 34.5678 15.0183C34.8492 15.4529 35.2492 15.7986 35.7233 16.006C35.9011 16.0653 36.0937 16.0949 36.2813 16.0949C37.0369 16.0949 37.7282 15.6653 38.0739 14.9936L38.3603 14.3517L37.664 14.3122C36.9134 14.1739 36.2369 13.7887 35.7381 13.2109C35.3678 12.8109 34.8492 12.5788 34.3011 12.5739C33.8764 12.5788 33.4665 12.7072 33.111 12.9344L32.469 13.3838L33.1603 13.7591ZM34.3159 13.0529L34.3011 13.0578C34.7208 13.0578 35.1159 13.2406 35.3974 13.5517C35.9752 14.2134 36.7653 14.6529 37.6344 14.7961C37.3678 15.2949 36.8492 15.606 36.2813 15.6109C36.1431 15.6109 36.0048 15.5862 35.8715 15.5418C35.0715 15.2702 34.79 14.0603 33.4023 13.3295C33.6739 13.1517 33.99 13.0578 34.3159 13.0529ZM33.4863 20.1245L33.4765 20.1146C33.0715 16.8553 30.7061 14.4998 28.074 13.0726C27.832 12.9393 27.6049 12.8307 27.3876 12.7269C28.474 12.9492 29.6049 12.6825 30.4789 12.001C30.4789 12.001 28.953 13.122 25.832 12.1047C26.6962 12.6677 28.3752 13.4578 29.911 14.7418C33.7431 18.1097 31.0024 21.3986 31.0024 21.3986C32.1481 20.3121 32.5481 18.6529 32.0345 17.1615C32.8444 18.5097 33.2345 20.0702 33.1505 21.6405C33.0419 24.2282 31.6049 26.4899 30.1234 28.2924C29.6789 28.8603 29.3728 29.5269 29.2444 30.2381C29.4962 29.5319 29.8765 28.88 30.3703 28.3171C31.9752 26.4356 33.3333 24.485 33.5258 21.6751C33.6938 22.1689 34.3752 23.606 35.4617 24.1442C35.4617 24.1442 34.0987 23.3245 33.4863 20.1245ZM13.0419 32.169C12.8049 31.6653 12.6765 31.1122 12.6715 30.5542C12.6567 29.532 12.237 28.5591 11.5061 27.848C11.6542 27.7789 11.7925 27.69 11.916 27.5814C12.3851 27.1814 12.6567 26.5986 12.6518 25.9814L12.6221 25.5418H12.1777C11.1604 25.5912 10.1728 25.1715 9.50613 24.3962C9.36292 24.2283 9.23452 24.0456 9.12094 23.853C9.56046 23.9863 10.0147 24.0505 10.474 24.0505H10.9234C11.4617 23.9962 11.9703 23.7789 12.3802 23.4283L12.8394 23.0085L12.316 22.6727C11.1407 21.9221 9.94069 20.4999 10.8641 18.0011C11.4617 16.3764 12.8394 14.9097 15.0863 13.4974C15.8419 13.0036 16.2567 12.4554 16.2567 11.9172C16.2567 11.0875 15.5604 10.7567 15.0518 10.5246C14.8197 10.4356 14.6073 10.3072 14.4197 10.1443C14.0246 9.68501 14.3555 8.81093 14.7258 8.33686L15.2197 7.71957L14.4592 7.57143C14.2863 7.5418 14.1086 7.53192 13.9308 7.53192C12.9678 7.50229 12.0394 7.87266 11.3579 8.5492C10.7999 9.09735 10.5086 9.86772 10.5629 10.648H10.2666C9.15551 10.648 8.63205 9.47266 8.6123 9.42328L8.3012 8.68747L7.80736 9.30476C7.3481 9.90723 7.13577 10.6628 7.21972 11.4184C7.38762 12.253 7.90614 12.9739 8.64688 13.3937C8.71601 13.4381 8.78515 13.4875 8.84441 13.5418C7.28391 14.0357 6.40984 15.1616 5.49132 16.332L5.35799 16.4999C4.47898 17.6209 3.14564 18.2925 1.72342 18.3418H1.04688L1.25428 18.9888C1.25428 19.0678 1.87651 20.8999 3.67897 20.8999H3.76786C3.93577 20.8949 4.09873 20.8752 4.26169 20.8406C4.18762 21.8283 3.82218 23.6851 2.16293 24.3715L1.6691 24.5789L1.9407 25.0727C2.38515 25.7591 3.15057 26.1641 3.97032 26.1542C4.46909 26.1591 4.95799 26.0455 5.40243 25.8184C5.47157 26.3912 5.59996 26.9542 5.78268 27.4974C6.09379 28.332 6.09379 29.2554 5.78268 30.09L5.53577 30.6135L6.09873 30.7616C6.35552 30.8209 6.62218 30.8554 6.88884 30.8554C7.06663 30.8554 7.24441 30.8357 7.41725 30.7962C7.78268 30.7122 8.11847 30.5443 8.40489 30.3023C8.57773 30.8554 8.87404 31.3641 9.27404 31.7838C10.0493 32.5789 11.1604 32.9739 12.6073 32.9789H13.4863L13.0419 32.169ZM12.6172 32.4455C8.62218 32.4455 8.72095 29.0184 8.72095 29.0184C8.5086 29.6554 7.98515 30.1394 7.32836 30.2974C7.19502 30.332 7.05181 30.3468 6.91354 30.3468C6.68638 30.3468 6.46416 30.3172 6.24688 30.2628C6.60737 29.3097 6.60737 28.253 6.24688 27.2999C5.96539 26.5097 5.83206 25.6702 5.84688 24.8307C5.39256 25.3888 4.69625 25.6949 3.97527 25.6505H3.95057C3.30859 25.6604 2.70614 25.3394 2.35552 24.806C5.01725 23.6999 4.75552 20.1295 4.75552 20.1295C4.44935 20.3172 4.09379 20.4159 3.73329 20.411H3.67897C2.19749 20.411 1.70367 18.8406 1.70367 18.8406H1.7333C3.29873 18.7912 4.76538 18.0505 5.73329 16.8209C6.75058 15.532 7.58021 14.3962 9.22465 13.9517L9.38762 13.9221L9.42218 13.7591C9.46663 13.5073 9.29379 13.2653 8.92836 13.0184C6.66168 11.5369 8.20243 9.64056 8.20243 9.64056C8.20243 9.64056 8.84441 11.1567 10.3012 11.1567H10.3703C10.5382 11.1517 10.7012 11.1369 10.8641 11.1073L11.1308 11.053C10.9036 10.2825 11.1308 9.44797 11.7135 8.89488C12.2863 8.30229 13.0814 7.97143 13.9061 7.9813C14.0493 7.9813 14.1975 7.99118 14.3407 8.01587C13.8468 8.67266 13.4814 9.75908 14.0592 10.4258C14.553 11.0036 15.7777 11.0283 15.7777 11.9073C15.7777 12.2727 15.437 12.6974 14.8296 13.0776C12.9925 14.2332 11.1703 15.769 10.4147 17.8233C9.47157 20.3863 10.5382 22.09 12.0592 23.0628C11.7283 23.3394 11.3184 23.5122 10.8888 23.5567H10.4789C9.68391 23.5912 8.89873 23.3493 8.26169 22.8702C8.39009 23.5468 8.69132 24.1789 9.1407 24.6974C9.89626 25.5715 11.0172 26.0554 12.1728 26.006C12.1629 26.4752 11.9555 26.9196 11.595 27.2209C11.1999 27.4875 10.7505 27.6554 10.2765 27.7147C10.2765 27.7147 11.9999 28.0653 12.1876 30.6085C12.1826 31.2554 12.3407 31.8925 12.6419 32.4653L12.6172 32.4455Z" fill="#222220"/>
<path d="M3.71367 16.0901H3.7186C3.90626 16.0901 4.09885 16.0605 4.27663 16.0013C4.7507 15.7938 5.1507 15.4482 5.43218 15.0136C5.80255 14.5 6.28157 14.0704 6.83465 13.7543L7.52601 13.384L6.88404 12.9346C6.52848 12.7074 6.1186 12.579 5.69885 12.5741C5.1507 12.579 4.63218 12.8111 4.26181 13.2161C3.76799 13.7889 3.0865 14.179 2.34083 14.3173L1.64453 14.3519L1.92601 14.9938C2.27169 15.6655 2.95811 16.0852 3.71367 16.0901ZM4.60255 13.5519C4.8791 13.2408 5.27416 13.058 5.69391 13.058C6.0149 13.063 6.33095 13.1618 6.60255 13.3346C5.20502 14.0803 4.91367 15.2753 4.13342 15.5469C4.00502 15.5914 3.86675 15.6161 3.72848 15.6161C3.15564 15.6161 2.63218 15.3 2.36552 14.7963C3.23465 14.6531 4.02478 14.2136 4.60255 13.5519ZM6.85939 21.6605C6.77544 20.0901 7.16062 18.5296 7.97544 17.1815C7.46186 18.6728 7.86186 20.3321 9.00754 21.4185C9.00754 21.4185 6.26186 18.1296 10.0989 14.7617C11.6347 13.4778 13.3088 12.6877 14.173 12.1247C11.052 13.142 9.52606 12.021 9.52606 12.021C10.4001 12.7025 11.5261 12.9691 12.6125 12.7469C12.3952 12.8506 12.168 12.9642 11.9261 13.0926C9.29396 14.5247 6.91371 16.8803 6.52359 20.1395V20.1148C5.91124 23.3148 4.54828 24.1346 4.54828 24.1346C5.62976 23.6012 6.31618 22.1593 6.47914 21.6654C6.66186 24.4803 8.0347 26.4309 9.63964 28.3074C10.1285 28.8704 10.5137 29.5222 10.7656 30.2284C10.6322 29.5222 10.3261 28.8556 9.87667 28.2926C8.39519 26.4901 6.96309 24.2284 6.85939 21.6605ZM19.0964 15.7148C19.2692 15.5469 19.5112 15.4679 19.7532 15.4975V16.4308C19.7483 16.6629 19.689 16.8852 19.5754 17.0876H20.5087C20.3952 16.8852 20.3359 16.6629 20.331 16.4308V15.4975C20.568 15.4679 20.81 15.5469 20.9828 15.7148V15.0679H19.0964V15.7148ZM18.7063 11.2358H18.6964C18.8396 11.3593 19.0075 11.458 19.1903 11.5173L19.3088 11.5716V10.9593L18.2125 10.5C18.2668 10.8062 18.4446 11.0728 18.7063 11.2358ZM21.3088 11.2309L21.3038 11.2358C21.5656 11.0728 21.7433 10.8062 21.7977 10.5L20.7014 10.9593V11.5667L20.8149 11.5123C20.9977 11.4531 21.1656 11.3543 21.3088 11.2309Z" fill="#222220"/>
<path d="M23.2745 8.757C23.2745 7.83354 21.7189 7.00391 20.0053 7.00391C18.2917 7.00391 16.7362 7.83354 16.7362 8.757L16.7707 8.98416L17.4572 12.9347L16.7707 13.3347L14.9782 14.352C14.9782 14.352 14.5782 14.5594 14.3905 14.6829C13.714 15.1767 13.5707 15.8384 13.9609 16.1249C14.0596 15.4532 14.6473 14.9594 15.3288 14.9792C15.8967 14.994 16.4251 15.2804 16.7461 15.7495C16.8448 15.8681 16.9337 15.9965 17.0127 16.1249C17.1164 16.2928 17.2201 16.4409 17.3238 16.5841H12.751C13.1362 17.2458 13.3584 17.9915 13.4078 18.7569V28.915C13.4078 31.3841 15.2991 32.5446 17.3584 32.5446C18.9387 32.5446 19.151 32.4705 20.0201 33.3397C20.8893 32.4705 21.1016 32.5446 22.6819 32.5446C24.7263 32.5446 26.6325 31.3742 26.6325 28.915V18.7668C26.6819 18.0014 26.9041 17.2557 27.2893 16.594H22.667C22.7707 16.4508 22.8745 16.3026 22.9782 16.1347C23.0621 16.0063 23.151 15.8779 23.2448 15.7594C23.5707 15.2903 24.0991 15.0039 24.667 14.989C25.3485 14.9693 25.9362 15.4631 26.0349 16.1347C26.43 15.8532 26.2868 15.1471 25.6053 14.6928C25.4226 14.5644 25.0226 14.3619 25.0226 14.3619L23.2448 13.315L22.5584 12.915L23.2448 8.96441L23.2745 8.757ZM17.3979 9.21132L19.8078 10.0261V13.8088L18.0349 12.8705L17.3979 9.21132ZM13.7386 17.2508H17.8917C18.2127 17.5866 18.6078 17.8532 19.0424 18.0211C18.9485 18.3471 18.9732 18.6977 19.1066 19.0088C19.2646 19.3397 19.5461 19.5965 19.8917 19.7298C19.9559 20.2977 20.3411 20.7718 20.8794 20.9594C20.5831 21.2607 20.2917 21.5421 20.1732 21.6557L17.4127 21.6113C17.3189 21.5668 17.2448 21.4977 17.1954 21.4088V21.3742L17.6448 21.4483H17.6745C17.7633 21.4483 17.8374 21.389 17.8522 21.3002C17.867 21.2014 17.8028 21.1125 17.7041 21.0928L17.151 21.0039L17.7633 18.8804L17.1806 17.6557L16.2473 18.6434L16.188 20.8508L15.5609 20.752C15.4621 20.7323 15.3732 20.7965 15.3535 20.8952V20.9002C15.3386 20.9989 15.4028 21.0878 15.5016 21.1076L15.7633 21.1471C15.6695 21.2014 15.6053 21.2409 15.6004 21.2508L15.5461 21.2903V21.3545C15.4226 21.9174 15.6498 22.5002 16.114 22.836V22.915C16.0843 23.1076 16.2177 23.2903 16.4103 23.3248H16.4695C16.6325 23.3248 16.7757 23.2113 16.8103 23.0483C16.9288 23.0532 17.0424 23.0532 17.1609 23.0483H17.2349L20.8547 23.7051L20.914 23.6656C21.2004 23.4631 22.3016 22.6779 22.6621 22.3965C22.7658 22.4853 22.8843 22.5644 23.0078 22.6236C22.8399 23.1421 22.9683 23.71 23.3436 24.1051H14.0695V18.7668C14.0498 18.2483 13.9362 17.7347 13.7386 17.2508ZM22.351 22.1347C21.9757 22.4113 21.0522 23.0829 20.7164 23.3199L17.4325 22.7471V22.6582C17.4868 22.436 17.5164 22.2088 17.5214 21.9816L20.2868 22.0261L20.3411 21.9718C20.3856 21.9273 21.2596 21.0829 21.7041 20.594C21.8226 20.7421 21.9609 20.8656 22.1189 20.9644C22.0399 21.3693 22.1238 21.789 22.351 22.1347ZM16.8646 21.5421V21.5569C16.9387 21.6952 17.0473 21.8137 17.1806 21.8928C17.1757 22.0952 17.1559 22.2928 17.1214 22.4903C17.1214 22.5347 17.1214 22.5792 17.0868 22.6236V22.6928C16.8596 22.6928 16.6374 22.6582 16.4201 22.589C16.0251 22.3767 15.8028 21.9421 15.867 21.4977C16.0448 21.3742 16.2473 21.2952 16.4596 21.2656C16.6424 21.2607 16.8053 21.3693 16.8646 21.5421ZM16.5238 20.8853L16.5782 18.7965L17.072 18.3026L17.3732 18.9298L16.7856 20.9644L16.5238 20.8853ZM22.3263 31.8878H21.8522L22.2226 30.6779C22.2819 30.51 21.9757 30.2927 21.8473 30.1002C22.1485 30.2829 22.4596 30.4458 22.7806 30.594C22.7806 30.6335 22.3263 31.8878 22.3263 31.8878ZM23.5954 30.5347L23.5559 30.5002L23.2991 31.8335C23.1362 31.8335 22.9633 31.8681 22.8053 31.8779L23.0769 30.594C23.1559 30.2137 22.1337 30.1002 21.63 29.3446C21.2991 29.6211 20.8745 29.7495 20.4498 29.7051C20.0745 29.7002 19.7041 29.6606 19.3386 29.5866C19.2745 29.5816 19.2103 29.5816 19.1461 29.5866C18.993 29.5767 18.8448 29.6557 18.7658 29.789L18.6917 29.9125L17.2843 29.5718L16.9485 30.1545C16.8942 30.2335 16.9041 30.3421 16.9732 30.4113L17.067 30.515C16.9732 30.6977 16.8547 30.8656 16.7115 31.0088L16.5041 30.752C16.3461 30.4952 16.3609 30.1644 16.5387 29.9224L17.0917 28.989L18.272 29.1668L18.0893 28.7471C17.8424 28.194 18.2177 27.4878 18.2572 27.0829C18.2572 27.2063 18.1288 27.231 18.0004 27.231H17.6596C17.6349 27.2261 17.6053 27.2261 17.5806 27.231L17.2596 27.4236L17.0078 27.1915C16.9683 27.1174 16.9831 27.0286 17.0424 26.9742L17.6251 26.3174L16.9337 25.5125L17.9214 26.0063L18.2177 25.6508C18.2967 25.7298 18.2621 25.9372 18.2621 25.9372C18.9782 26.115 19.4769 26.7668 19.4572 27.5076V27.6508C19.5559 27.8088 19.714 27.9174 19.8917 27.9619L21.23 28.0952C21.4967 28.0113 21.7683 27.9569 22.0448 27.9224C22.2819 27.9224 22.5189 27.9965 22.7164 28.1248C22.8103 28.0607 22.9238 28.0211 23.0374 28.0162H23.0819C23.6794 28.0162 23.9312 28.5594 24.2522 29.0039C24.4942 29.3446 24.8201 29.8582 24.8201 29.8582C24.7263 29.9965 24.5732 30.0804 24.4053 30.0804C24.3461 30.0853 24.2917 30.0853 24.2325 30.0804C23.5905 29.9619 23.4967 28.6384 23.1312 28.5347H23.072C23.0028 28.5347 22.9387 28.5742 22.9041 28.6384C23.072 29.0878 22.9732 29.2705 23.1559 29.6261C23.2893 29.8384 23.4572 30.031 23.6498 30.194C23.6498 30.194 23.6251 30.3915 23.5954 30.5347ZM16.4004 29.2409H16.3905L16.4498 29.394C16.4103 29.5273 15.9559 29.7199 15.9559 29.7199L15.8572 29.5026C15.7288 29.1915 15.8226 28.836 16.0942 28.6335L16.8399 28.1792L17.6349 28.3471C17.63 28.5051 17.6794 28.6582 17.7732 28.7866L16.9386 28.6286L16.4448 28.9742C16.3658 29.0434 16.351 29.152 16.4004 29.2409ZM25.951 28.9199C26.0053 30.2928 25.0522 31.4977 23.7041 31.7644L23.9312 30.5693C23.9312 30.5002 23.9559 30.4162 23.9658 30.3471C24.0349 30.3767 24.1041 30.3965 24.1732 30.4113C24.2522 30.4162 24.3312 30.4162 24.4103 30.4113C24.6819 30.4113 24.9387 30.2878 25.1016 30.0705L25.2794 29.8631L25.1312 29.6607C25.1312 29.6607 24.8004 29.1372 24.5535 28.7915L24.4152 28.5841C24.1386 28.1693 23.788 27.6458 23.0917 27.6458H23.0275C22.9288 27.6508 22.8251 27.6705 22.7312 27.7051C22.5189 27.6014 22.2868 27.5471 22.0498 27.5471C21.8127 27.552 21.5757 27.5965 21.3535 27.6804L21.2349 27.715L19.9312 27.5866C19.8769 27.5619 19.8325 27.5224 19.7979 27.473L20.0794 27.3594C20.0004 26.4162 19.0917 25.8384 18.5979 25.6458C18.5732 25.5421 18.5238 25.4532 18.4498 25.3792L18.1683 25.1125L17.9214 25.4088L17.7979 25.5569L15.9707 24.8063L17.1609 26.2878L16.6917 26.9989C16.593 27.0977 16.588 27.2607 16.6917 27.3644L17.1856 27.7002L17.6794 27.5125H17.7288C17.7288 27.5866 17.6745 27.8878 17.6498 27.9718L16.7905 27.8236L15.872 28.3174C15.4473 28.6236 15.2991 29.1866 15.5214 29.6607L15.6251 29.8829L15.7683 30.1989L16.0893 30.0656C15.9707 30.3866 16.0201 30.7421 16.2275 31.0137L16.4201 31.2607L16.6769 31.5866L16.9633 31.2804C17.151 31.0928 17.2991 30.8755 17.4028 30.6335L17.4621 30.436L17.3238 30.2829V30.2532L17.4819 29.9965L18.6226 30.2631L18.8794 30.3224L19.0177 30.0952L19.0917 29.9718C19.0917 29.9471 19.0917 29.9421 19.1609 29.9421H19.2843C19.6745 30.0211 20.0695 30.0607 20.4646 30.0656C20.7312 30.0804 20.9979 30.0508 21.2547 29.9718L21.8868 30.6928L21.5115 31.8483V31.9174C20.9485 31.9076 20.4103 32.1397 20.03 32.5495C19.4226 31.9471 18.993 31.8829 17.3683 31.8829C15.4177 31.8829 14.0991 30.7421 14.0991 28.9199V24.4755H25.951V28.9199ZM26.272 17.2508C26.0695 17.7298 25.9609 18.2434 25.9411 18.7668V22.0952C25.5115 22.0014 25.1905 21.636 25.1609 21.1965V21.0434H25.0127C24.7559 21.0236 24.5189 20.9051 24.3411 20.7224C24.1238 20.4705 24.0053 20.1545 24.0004 19.8236C23.788 20.1693 23.8078 20.6137 24.0547 20.9397C24.2473 21.1816 24.5288 21.3446 24.8349 21.3841C24.9238 21.9569 25.3831 22.4014 25.9559 22.4755V24.1051H23.8819C23.3387 23.8286 23.1115 23.1816 23.3535 22.6236L23.4325 22.4458L23.2498 22.3767C22.6572 22.1693 22.3312 21.5323 22.5189 20.9298L22.5584 20.7816L22.4201 20.7174C21.9016 20.4162 21.6152 19.8286 21.6991 19.236C21.4275 19.5125 21.3584 19.9323 21.5312 20.2779C21.4325 20.3915 21.3041 20.5248 21.1609 20.673C20.6424 20.5644 20.267 20.115 20.2473 19.5866V19.4631L20.1337 19.4187C19.8325 19.3298 19.5856 19.1224 19.4424 18.8458C19.3485 18.6187 19.3288 18.3619 19.393 18.1248C19.4917 18.1446 19.5905 18.1594 19.6893 18.1693C19.788 18.1742 19.8917 18.1742 19.9905 18.1693C20.7905 18.1693 21.551 17.8236 22.0843 17.231L26.272 17.2508ZM23.072 13.8829L23.8819 14.3767L24.0843 14.4952C23.6646 14.6088 23.2843 14.836 22.9831 15.152L22.9485 15.1816C22.8794 15.2557 22.8152 15.3298 22.751 15.4088L22.7115 15.4582C22.6473 15.5372 22.588 15.6211 22.5337 15.71L22.5041 15.7545C22.4349 15.8532 22.3707 15.9619 22.3066 16.0705C21.8572 16.9644 20.9831 17.5619 19.9905 17.6607C18.9979 17.5619 18.1238 16.9644 17.6745 16.0705C17.6103 15.9619 17.5461 15.8582 17.4819 15.7545L17.4424 15.7002L17.2843 15.4434L17.2399 15.389C17.1757 15.31 17.1115 15.236 17.0473 15.1668L17.0127 15.1323C16.7115 14.8162 16.3312 14.589 15.9115 14.4755L16.1189 14.3569L16.9337 13.8631L17.7683 13.3693L19.9954 14.5792L22.2226 13.4088L23.072 13.8829ZM21.9757 12.8952L20.2028 13.8286V10.0311L22.6078 9.21626L21.9757 12.8952ZM20.0004 9.63107L17.3633 8.57428C17.5856 8.04095 18.6226 7.58663 20.0004 7.58663C21.3782 7.58663 22.4152 8.04095 22.6374 8.57428L20.0004 9.63107Z" fill="#222220"/>
</svg>
