<svg width="30" height="30" viewBox="0 0 40 40" fill="none" xmlns="http://www.w3.org/2000/svg">
<path d="M28.001 9.59961L24.801 11.2996V14.4996H22.001V17.4996H24.801V26.4996C24.801 28.8996 26.201 30.5996 28.401 30.6996C29.401 30.6996 30.401 30.4996 31.301 29.9996L32.101 26.8996L32.001 26.9996C31.301 27.4996 30.401 27.7996 29.601 27.7996C28.501 27.7996 28.001 27.2996 28.001 25.9996V17.4996H31.301V14.4996H28.001V9.59961ZM8.30098 14.2996C6.20098 14.2996 4.10098 14.9996 2.50098 16.3996C1.70098 17.1996 1.00098 18.0996 0.600977 19.1996C0.200977 20.2996 0.000976562 21.3996 0.000976562 22.4996C0.000976562 23.5996 0.200977 24.7996 0.600977 25.7996C1.00098 26.8996 1.70098 27.7996 2.50098 28.5996C4.10098 29.9996 6.20098 30.7996 8.30098 30.6996C9.40098 30.6996 10.501 30.4996 11.401 29.9996C12.301 29.4996 13.201 28.8996 13.901 27.9996L14.001 27.8996L12.101 25.5996L12.001 25.6996C11.501 26.1996 10.901 26.6996 10.201 26.9996C9.50098 27.2996 8.80098 27.4996 8.10098 27.4996C7.40098 27.4996 6.80098 27.3996 6.10098 27.0996C5.50098 26.7996 4.90098 26.4996 4.40098 25.9996C3.90098 25.4996 3.60098 24.8996 3.30098 24.2996C3.10098 23.6996 3.00098 22.9996 3.00098 22.2996C3.00098 21.5996 3.10098 20.9996 3.30098 20.2996C3.50098 19.6996 3.90098 19.0996 4.40098 18.5996C4.90098 18.0996 5.40098 17.6996 6.10098 17.4996C6.70098 17.1996 7.40098 17.0996 8.10098 17.1996C8.80098 17.1996 9.60098 17.3996 10.201 17.6996C10.901 17.9996 11.501 18.3996 12.001 18.9996L12.101 19.0996L14.001 16.8996V16.9996C13.301 16.0996 12.501 15.3996 11.501 14.9996C10.501 14.4996 9.40098 14.2996 8.30098 14.2996ZM15.901 14.4996H19.101V30.3996H15.901V14.4996ZM34.601 14.4996H37.901V30.3996H34.701C34.701 30.4996 34.601 14.4996 34.601 14.4996Z" fill="#020168"/>
<path d="M39.8012 11.7C38.3012 9.6 36.4012 7.9 34.1012 6.7C31.8012 5.5 29.4012 5 26.9012 5C24.4012 5 21.8012 5.6 19.6012 6.8C17.3012 8 15.4012 9.7 13.9012 11.8L13.7012 12H17.5012C18.7012 10.7 20.1012 9.7 21.8012 9C23.5012 8.3 25.1012 7.9 26.9012 7.9C28.7012 7.9 30.4012 8.3 32.0012 9C33.6012 9.7 35.1012 10.7 36.3012 12H40.0012L39.8012 11.7Z" fill="#FF0100"/>
</svg>
