<svg width="18" height="22" viewBox="0 0 18 22" fill="none" xmlns="http://www.w3.org/2000/svg">
<path d="M15.5172 11.7795L16.0124 11.8484L15.5172 11.7795ZM15.2549 13.6645L15.7501 13.7334V13.7334L15.2549 13.6645ZM2.74514 13.6645L3.24036 13.5956L2.74514 13.6645ZM2.4828 11.7795L1.98757 11.8484L2.4828 11.7795ZM6.18365 20.7368L5.98925 21.1975H5.98925L6.18365 20.7368ZM3.47508 17.5603L3.94441 17.3879L3.47508 17.5603ZM14.5249 17.5603L14.9942 17.7328L14.5249 17.5603ZM11.8164 20.7368L11.622 20.2762L11.8164 20.7368ZM2.49776 7.95271C2.47164 7.6778 2.22761 7.47612 1.95271 7.50224C1.6778 7.52836 1.47612 7.77239 1.50224 8.04729L2.49776 7.95271ZM16.4978 8.04729C16.5239 7.77239 16.3222 7.52836 16.0473 7.50224C15.7724 7.47612 15.5284 7.6778 15.5022 7.95271L16.4978 8.04729ZM17 6.5C17.2761 6.5 17.5 6.27614 17.5 6C17.5 5.72386 17.2761 5.5 17 5.5V6.5ZM1 5.5C0.723858 5.5 0.5 5.72386 0.5 6C0.5 6.27614 0.723858 6.5 1 6.5V5.5ZM6.5 17C6.5 17.2761 6.72386 17.5 7 17.5C7.27614 17.5 7.5 17.2761 7.5 17H6.5ZM7.5 9C7.5 8.72386 7.27614 8.5 7 8.5C6.72386 8.5 6.5 8.72386 6.5 9H7.5ZM10.5 17C10.5 17.2761 10.7239 17.5 11 17.5C11.2761 17.5 11.5 17.2761 11.5 17H10.5ZM11.5 9C11.5 8.72386 11.2761 8.5 11 8.5C10.7239 8.5 10.5 8.72386 10.5 9H11.5ZM13 6V6.5H13.5V6H13ZM5 6H4.5V6.5H5V6ZM15.022 11.7106L14.7596 13.5956L15.7501 13.7334L16.0124 11.8484L15.022 11.7106ZM3.24036 13.5956L2.97803 11.7106L1.98757 11.8484L2.24991 13.7334L3.24036 13.5956ZM9 20.5C7.49329 20.5 6.88605 20.4905 6.37804 20.2762L5.98925 21.1975C6.72853 21.5095 7.58312 21.5 9 21.5V20.5ZM2.24991 13.7334C2.53142 15.7562 2.68031 16.847 3.00576 17.7328L3.94441 17.3879C3.66531 16.6282 3.52909 15.6703 3.24036 13.5956L2.24991 13.7334ZM6.37804 20.2762C5.37434 19.8526 4.47675 18.8368 3.94441 17.3879L3.00576 17.7328C3.60391 19.3608 4.66051 20.6368 5.98925 21.1975L6.37804 20.2762ZM14.7596 13.5956C14.4709 15.6703 14.3347 16.6282 14.0556 17.3879L14.9942 17.7328C15.3197 16.847 15.4686 15.7562 15.7501 13.7334L14.7596 13.5956ZM9 21.5C10.4169 21.5 11.2715 21.5095 12.0107 21.1975L11.622 20.2762C11.1139 20.4905 10.5067 20.5 9 20.5V21.5ZM14.0556 17.3879C13.5232 18.8368 12.6257 19.8526 11.622 20.2762L12.0107 21.1975C13.3395 20.6368 14.3961 19.3608 14.9942 17.7328L14.0556 17.3879ZM2.97803 11.7106C2.7562 10.1166 2.58941 8.91735 2.49776 7.95271L1.50224 8.04729C1.59643 9.03864 1.76693 10.263 1.98757 11.8484L2.97803 11.7106ZM16.0124 11.8484C16.2331 10.263 16.4036 9.03864 16.4978 8.04729L15.5022 7.95271C15.4106 8.91735 15.2438 10.1166 15.022 11.7106L16.0124 11.8484ZM17 5.5H1V6.5H17V5.5ZM7.5 17V9H6.5V17H7.5ZM11.5 17V9H10.5V17H11.5ZM12.5 5V6H13.5V5H12.5ZM13 5.5H5V6.5H13V5.5ZM5.5 6V5H4.5V6H5.5ZM9 1.5C10.933 1.5 12.5 3.067 12.5 5H13.5C13.5 2.51472 11.4853 0.5 9 0.5V1.5ZM9 0.5C6.51472 0.5 4.5 2.51472 4.5 5H5.5C5.5 3.067 7.067 1.5 9 1.5V0.5Z" fill="#72BF44"/>
</svg>
